<?xml version="1.0" encoding="utf-8"?>
<!-- Generator: Adobe Illustrator 25.4.0, SVG Export Plug-In . SVG Version: 6.00 Build 0)  -->
<svg version="1.1" id="logos" xmlns="http://www.w3.org/2000/svg" xmlns:xlink="http://www.w3.org/1999/xlink" x="0px" y="0px"
	 viewBox="0 0 125 40" enable-background="new 0 0 125 40" xml:space="preserve">
<g>
	<rect x="0" y="0" fill="none" width="125" height="40"/>
	<g>
		<g>
			<path d="M0,18.867c0-4.983,0-7.475,0.97-9.378c0.853-1.674,2.214-3.035,3.888-3.888c1.903-0.97,4.395-0.97,9.378-0.97h2.669
				c4.983,0,7.475,0,9.378,0.97c1.674,0.853,3.035,2.214,3.888,3.888c0.97,1.903,0.97,4.395,0.97,9.378v2.265
				c0,4.983,0,7.475-0.97,9.378c-0.853,1.674-2.214,3.035-3.888,3.888c-1.903,0.97-4.395,0.97-9.378,0.97h-2.669
				c-4.983,0-7.475,0-9.378-0.97c-1.674-0.853-3.035-2.214-3.888-3.888C0,28.607,0,26.116,0,21.133V18.867z"/>
		</g>
		<path fill="#57B8FF" d="M42.469,16.324c1.24-1.838,3.812-3.647,7.02-3.587c2.239,0.059,3.994,0.83,3.994,2.757
			c0,1.542-0.938,2.816-3.661,2.816h-3.177v3.054h3.207c3.298,0,4.69,0.86,4.69,2.698c0,2.105-2.057,3.172-4.629,3.202
			c-3.903,0.03-6.657-1.631-7.958-3.735v4.566c1.12,1.245,4.054,2.609,7.897,2.579c5.688-0.03,8.623-2.787,8.623-6.374
			c0-2.727-1.573-4.388-4.841-4.862c2.451-0.86,3.752-2.461,3.752-4.892c0-3.647-3.147-5.188-7.897-5.218
			c-3.359,0-5.809,0.978-7.02,1.838V16.324z"/>
		<path fill="#57B8FF" d="M71.498,30.376c5.144,0,8.29-1.749,8.29-6.048c0-2.698-1.18-4.328-3.782-4.773
			c2.178-0.83,3.147-2.401,3.147-4.773c0-3.439-2.421-5.158-7.141-5.158h-9.198v20.752H71.498z M66.596,26.967v-5.662H71.8
			c2.663,0,4.175,0.771,4.175,2.757c0,1.986-1.331,2.905-4.236,2.905H66.596z M66.596,18.399v-5.366h4.962
			c2.693,0,3.812,0.889,3.812,2.55c0,1.779-1.513,2.816-3.903,2.816H66.596z"/>
		<path fill="#57B8FF" d="M88.786,27.115c-0.877,0-1.755-0.326-2.3-0.83v3.854c0.545,0.237,1.483,0.474,2.451,0.474
			c2.148,0,3.752-0.949,5.476-4.565l7.776-16.424h-3.963L92.659,21.66L85.851,9.624h-4.387l9.259,16.246
			C90.238,26.818,89.573,27.115,88.786,27.115z"/>
		<path fill="#57B8FF" d="M109.115,21.393h3.359l7.685,8.983H125l-9.379-10.88l8.079-9.872H119.1l-6.807,8.716h-3.178V9.624h-3.781
			v20.752h3.781V21.393z"/>
		<g>
			
				<linearGradient id="SVGID_1_" gradientUnits="userSpaceOnUse" x1="22.9528" y1="-409.6253" x2="-15.6513" y2="-370.0013" gradientTransform="matrix(1 0 0 -1 0 -358)">
				<stop  offset="0" style="stop-color:#F212FF"/>
				<stop  offset="0.35" style="stop-color:#5AAFFF"/>
				<stop  offset="0.4318" style="stop-color:#59B3FF"/>
				<stop  offset="0.5087" style="stop-color:#55BEFF"/>
				<stop  offset="0.5835" style="stop-color:#4FD1FF"/>
				<stop  offset="0.6567" style="stop-color:#46ECFF"/>
				<stop  offset="0.7" style="stop-color:#40FFFF"/>
			</linearGradient>
			<path fill="url(#SVGID_1_)" d="M0.402,28.912c0.137,0.592,0.321,1.115,0.567,1.599c0.853,1.674,2.214,3.035,3.888,3.888
				c0.503,0.256,1.049,0.443,1.669,0.582c-0.051-0.844-0.27-1.678-0.656-2.461C4.805,30.36,2.671,29.055,0.402,28.912z"/>
			
				<linearGradient id="SVGID_00000055695444808622659000000016242029028930240663_" gradientUnits="userSpaceOnUse" x1="35.327" y1="-397.5696" x2="-3.2772" y2="-357.9456" gradientTransform="matrix(1 0 0 -1 0 -358)">
				<stop  offset="0" style="stop-color:#F212FF"/>
				<stop  offset="0.35" style="stop-color:#5AAFFF"/>
				<stop  offset="0.4318" style="stop-color:#59B3FF"/>
				<stop  offset="0.5087" style="stop-color:#55BEFF"/>
				<stop  offset="0.5835" style="stop-color:#4FD1FF"/>
				<stop  offset="0.6567" style="stop-color:#46ECFF"/>
				<stop  offset="0.7" style="stop-color:#40FFFF"/>
			</linearGradient>
			<path fill="url(#SVGID_00000055695444808622659000000016242029028930240663_)" d="M2.176,7.741
				C1.714,8.277,1.295,8.851,0.97,9.489c-0.309,0.606-0.519,1.273-0.662,2.059c8.835,0.123,17.293,5.024,21.421,13.379
				c1.588,3.214,2.409,6.665,2.452,10.14c0.805-0.144,1.486-0.355,2.103-0.669c0.62-0.316,1.18-0.722,1.704-1.168
				c-0.27-3.44-1.192-6.835-2.769-10.027C20.708,14.075,11.755,8.493,2.176,7.741z"/>
			
				<linearGradient id="SVGID_00000090285202134806739640000006442518961941406887_" gradientUnits="userSpaceOnUse" x1="30.9261" y1="-401.8572" x2="-7.6781" y2="-362.2332" gradientTransform="matrix(1 0 0 -1 0 -358)">
				<stop  offset="0" style="stop-color:#F212FF"/>
				<stop  offset="0.35" style="stop-color:#5AAFFF"/>
				<stop  offset="0.4318" style="stop-color:#59B3FF"/>
				<stop  offset="0.5087" style="stop-color:#55BEFF"/>
				<stop  offset="0.5835" style="stop-color:#4FD1FF"/>
				<stop  offset="0.6567" style="stop-color:#46ECFF"/>
				<stop  offset="0.7" style="stop-color:#40FFFF"/>
			</linearGradient>
			<path fill="url(#SVGID_00000090285202134806739640000006442518961941406887_)" d="M0.033,14.753C0.002,15.847,0,17.119,0,18.619
				c6.292,0.008,12.343,3.472,15.28,9.417c1.147,2.322,1.707,4.821,1.705,7.333c1.508,0,2.788-0.001,3.89-0.029
				c-0.002-3.092-0.693-6.169-2.105-9.028C15.165,19.014,7.747,14.778,0.033,14.753z"/>
			
				<linearGradient id="SVGID_00000164515420188509506040000010372208723404751240_" gradientUnits="userSpaceOnUse" x1="26.6124" y1="-406.0599" x2="-11.9918" y2="-366.4359" gradientTransform="matrix(1 0 0 -1 0 -358)">
				<stop  offset="0" style="stop-color:#F212FF"/>
				<stop  offset="0.35" style="stop-color:#5AAFFF"/>
				<stop  offset="0.4318" style="stop-color:#59B3FF"/>
				<stop  offset="0.5087" style="stop-color:#55BEFF"/>
				<stop  offset="0.5835" style="stop-color:#4FD1FF"/>
				<stop  offset="0.6567" style="stop-color:#46ECFF"/>
				<stop  offset="0.7" style="stop-color:#40FFFF"/>
			</linearGradient>
			<path fill="url(#SVGID_00000164515420188509506040000010372208723404751240_)" d="M0,21.827c0.001,1.519,0.007,2.795,0.049,3.885
				c3.619,0.022,7.092,2.009,8.781,5.429c0.655,1.325,0.978,2.751,0.983,4.185c1.094,0.038,2.373,0.043,3.891,0.043
				c0.001-2.039-0.453-4.068-1.384-5.953C9.949,24.617,5.069,21.835,0,21.827z"/>
		</g>
	</g>
</g>
</svg>
