<?xml version="1.0" encoding="utf-8"?>
<!-- Generator: Adobe Illustrator 16.0.0, SVG Export Plug-In . SVG Version: 6.00 Build 0)  -->
<!DOCTYPE svg PUBLIC "-//W3C//DTD SVG 1.1//EN" "http://www.w3.org/Graphics/SVG/1.1/DTD/svg11.dtd">
<svg version="1.1" id="Layer_2" xmlns="http://www.w3.org/2000/svg" xmlns:xlink="http://www.w3.org/1999/xlink" x="0px" y="0px"
	 width="73px" height="73px" viewBox="0 0 73 73" enable-background="new 0 0 73 73" xml:space="preserve">
<path fill-rule="evenodd" clip-rule="evenodd" fill="none" stroke="#FFFFFF" stroke-width="3" stroke-miterlimit="10" d="
	M36.501,6.778c16.432,0,29.752,13.307,29.752,29.722s-13.32,29.723-29.752,29.723c-16.433,0-29.754-13.308-29.754-29.723
	S20.068,6.778,36.501,6.778z"/>
<path fill-rule="evenodd" clip-rule="evenodd" fill="#FFFFFF" d="M49.425,34.921l-6.833-3.895c-1.523-0.87-4.018-2.291-5.547-3.16
	l-7.083-3.895c-1.522-0.87-3.021-0.171-3.021,1.555v21.948c0,1.721,1.499,2.425,3.021,1.555l6.958-3.895
	c1.528-0.869,4.086-2.29,5.608-3.16l6.864-3.895C50.915,37.21,50.947,35.79,49.425,34.921z"/>
</svg>
