<?xml version="1.0" encoding="utf-8"?>
<!-- Generator: Adobe Illustrator 25.4.0, SVG Export Plug-In . SVG Version: 6.00 Build 0)  -->
<svg version="1.1" id="logos" xmlns="http://www.w3.org/2000/svg" xmlns:xlink="http://www.w3.org/1999/xlink" x="0px" y="0px"
	 viewBox="0 0 125 40" enable-background="new 0 0 125 40" xml:space="preserve">
<g>
	<g>
		<path d="M40.102,26.145l4.512-12.378h-2.23l-3.617,10.201h-0.351l-3.494-10.201h-2.265l4.372,12.378H40.102z"/>
		<path d="M50.464,19.737l5.25-5.97h-2.598l-4.39,5.039h-0.509v-5.039H46.11v12.378h2.107v-5.302h0.527l4.635,5.302h2.774
			L50.464,19.737z"/>
		<path d="M63.218,26.145v-9.569h0.281l3.459,9.569h1.966l3.529-9.569h0.281v9.569h2.054V13.767h-3.231l-3.441,9.358h-0.281
			l-3.371-9.358h-3.301v12.378H63.218z"/>
		<path d="M81.405,23.599h-0.281l-2.686-6.584h-2.16l4.056,9.622l-0.105,0.281c-0.264,0.737-0.579,0.983-1.247,0.983h-1.703
			l0.175,1.844h1.387c1.686,0,2.598-0.755,3.213-2.458l3.74-10.271H83.74L81.405,23.599z"/>
		<path d="M92.145,21.492c0.931-0.246,1.615-1.001,1.615-2.037c0-1.528-1.457-2.616-3.476-2.616c-1.808,0-3.336,0.843-3.898,2.581
			l1.861,0.316c0.369-0.72,1.088-1.176,1.966-1.176c0.843,0,1.527,0.421,1.527,1.106c0,0.615-0.562,1.018-1.65,1.018H88.95v1.756
			h1.141c1.369,0,1.791,0.457,1.791,1.036c0,0.702-0.632,1.124-1.791,1.124c-1.054,0-1.668-0.351-2.072-1.159l-1.861,0.316
			c0.439,1.528,1.931,2.563,3.95,2.563c2.318,0,3.793-1.194,3.793-2.686C93.901,22.493,93.076,21.773,92.145,21.492z"/>
		<path d="M99.271,26.145c2.177,0,3.722-1.352,3.722-3.266c0-1.914-1.528-3.266-3.722-3.266h-1.422v-2.599H95.83v9.13H99.271z
			 M106.101,26.145v-9.13h-2.019v9.13H106.101z M97.849,21.37h1.422c1.001,0,1.703,0.615,1.703,1.51c0,0.895-0.702,1.51-1.703,1.51
			h-1.422V21.37z"/>
		<path d="M116.703,26.145l-4.196-4.741l3.845-4.389h-2.405l-3.055,3.547H110.4v-3.547h-2.019v9.13h2.019v-3.634h0.492l3.161,3.634
			H116.703z"/>
		<path d="M121.225,16.84c-1.773,0-3.336,0.913-3.792,2.493l1.861,0.316c0.281-0.562,0.913-1.089,1.826-1.089
			c1.106,0,1.756,0.79,1.844,1.984h-1.966c-2.686,0-4.021,1.176-4.021,2.862c0,1.703,1.317,2.915,3.178,2.915
			c1.493,0,2.493-0.86,2.932-1.615l0.421,1.44H125v-5.127C125,18.367,123.56,16.84,121.225,16.84z M120.628,24.618
			c-0.983,0-1.615-0.509-1.615-1.299c0-0.702,0.509-1.194,2.054-1.194h1.914C122.981,23.617,122.033,24.618,120.628,24.618z"/>
		<path fill-rule="evenodd" clip-rule="evenodd" fill="#0077FF" d="M1.728,9.437C0.052,11.114,0.002,13.781,0,19.017
			c4.692,0,7.621-2.014,10.191-3.781c2.007-1.38,3.795-2.61,6.032-2.61c3.33,0,6.237,2.354,7.778,3.603
			c0.217,0.176,0.408,0.33,0.568,0.452c-0.049-3.733-0.311-5.837-1.717-7.243C21.125,7.71,18.344,7.71,12.782,7.71h-0.983
			C6.237,7.71,3.456,7.71,1.728,9.437z M11.076,32.29c0.236,0,0.476,0,0.723,0h0.983h0c0.246,0,0.487,0,0.723,0H11.076z"/>
		<path fill-rule="evenodd" clip-rule="evenodd" fill="#F45FFF" d="M0,19.017c4.692,0,7.621-2.014,10.191-3.781
			c2.007-1.38,3.795-2.61,6.032-2.61c3.33,0,6.237,2.354,7.778,3.603c0.217,0.176,0.408,0.33,0.568,0.452
			c0.011,0.854,0.011,1.793,0.011,2.828v0.983c0,5.562,0,8.343-1.728,10.071c-1.651,1.651-4.265,1.724-9.348,1.728h-2.428
			c-5.084-0.003-7.697-0.076-9.348-1.728C0,28.835,0,26.054,0,20.492l0-0.983C0,19.342,0,19.178,0,19.017z"/>
		<path fill="#FFFFFF" d="M19.05,20.24c0-0.608,0.499-1.1,1.106-1.1c0.608,0,1.106,0.492,1.106,1.1v4.437
			c0,0.607-0.499,1.1-1.106,1.1c-0.608,0-1.106-0.493-1.106-1.1V20.24z"/>
		<path fill="#FFFFFF" d="M15.117,17.413c0-0.608,0.499-1.1,1.106-1.1c0.608,0,1.106,0.492,1.106,1.1v10.09
			c0,0.608-0.499,1.1-1.106,1.1c-0.608,0-1.106-0.492-1.106-1.1V17.413z"/>
		<path fill="#FFFFFF" d="M11.185,20.24c0-0.608,0.499-1.1,1.106-1.1c0.608,0,1.106,0.492,1.106,1.1v4.437
			c0,0.607-0.499,1.1-1.106,1.1c-0.608,0-1.106-0.493-1.106-1.1V20.24z"/>
		<path fill="#FFFFFF" d="M7.251,21.837c0-0.608,0.499-1.1,1.106-1.1c0.608,0,1.106,0.492,1.106,1.1v1.241
			c0,0.608-0.499,1.1-1.106,1.1c-0.607,0-1.106-0.492-1.106-1.1V21.837z"/>
		<path fill="#FFFFFF" d="M3.318,21.837c0-0.608,0.499-1.1,1.106-1.1c0.608,0,1.106,0.492,1.106,1.1v1.241
			c0,0.608-0.499,1.1-1.106,1.1c-0.607,0-1.106-0.492-1.106-1.1V21.837z"/>
	</g>
	<rect x="0" y="0" fill="none" width="125" height="40"/>
</g>
</svg>
