<?xml version="1.0" encoding="utf-8"?>
<!-- Generator: Adobe Illustrator 16.0.0, SVG Export Plug-In . SVG Version: 6.00 Build 0)  -->
<!DOCTYPE svg PUBLIC "-//W3C//DTD SVG 1.1//EN" "http://www.w3.org/Graphics/SVG/1.1/DTD/svg11.dtd">
<svg version="1.1" xmlns="http://www.w3.org/2000/svg" xmlns:xlink="http://www.w3.org/1999/xlink" x="0px" y="0px" width="73px"
	 height="73px" viewBox="0 0 73 73" enable-background="new 0 0 73 73" xml:space="preserve">
<g id="Layer_3">
</g>
<g id="Layer_2">
	<path fill="none" stroke="#FFFFFF" stroke-width="4" stroke-miterlimit="10" d="M36.501,6.778
		c16.433,0,29.753,13.307,29.753,29.721s-13.32,29.724-29.753,29.724c-16.433,0-29.754-13.31-29.754-29.724
		C6.747,20.084,20.068,6.778,36.501,6.778z"/>
	<g>
		<path fill="#FFFFFF" d="M29.564,22.629c2.188,0,3.963,1.657,3.963,3.699v20.343c0,2.043-1.774,3.699-3.963,3.699
			s-3.963-1.656-3.963-3.699V26.328C25.602,24.286,27.376,22.629,29.564,22.629z"/>
		<path fill="#FFFFFF" d="M43.436,22.629c2.188,0,3.963,1.657,3.963,3.699v20.343c0,2.043-1.773,3.699-3.963,3.699
			c-2.188,0-3.963-1.656-3.963-3.699V26.328C39.473,24.286,41.246,22.629,43.436,22.629z"/>
	</g>
</g>
</svg>
